<?xml version="1.0" encoding="utf-8"?>
<!-- Generator: Adobe Illustrator 23.0.1, SVG Export Plug-In . SVG Version: 6.00 Build 0)  -->
<svg version="1.1" id="Layer_1" xmlns="http://www.w3.org/2000/svg" xmlns:xlink="http://www.w3.org/1999/xlink" x="0px" y="0px"
	 viewBox="0 0 424.7 512" style="enable-background:new 0 0 424.7 512;" xml:space="preserve">
<g>
	<path style="fill:#CB3333;" d="M211.4,105.9c-0.9,0.9-1.8,1.6-2.6,2.4c-24.9,24.8-49.7,49.7-74.7,74.5c-2.5,2.5-2.4,3.8,0.1,6.2
		c14.1,13.9,28.1,28,42.1,42c38,37.9,75.8,75.9,113.9,113.7c3.2,3.2,2.8,4.6-0.1,7.6c-24.9,24.6-49.6,49.4-74.3,74.2
		c-2.7,2.7-4,3-6.9,0.1c-68.9-69-137.8-137.9-206.8-206.7c-2.6-2.6-3-4-0.1-6.8C71.2,144.1,140.2,75,209.2,5.9
		c2.8-2.8,4-2.3,6.5,0.2c68.9,69,137.8,137.9,206.9,206.7c3,3,2.7,4.3-0.1,7.2c-35.1,34.9-70.1,69.9-105,105
		c-2.9,2.9-4.3,2.5-6.9-0.1c-24.8-24.9-49.6-49.8-74.6-74.5c-2.7-2.7-2.9-4.1,0-6.9c18.1-17.8,35.9-35.8,53.9-53.6
		c2.4-2.3,2.3-3.6,0-5.9c-25.3-25.1-50.5-50.4-75.7-75.6C213.2,107.6,212.3,106.8,211.4,105.9z"/>
	<path style="fill:#CB3333;" d="M212.7,450.8c1.5-1.9,2.4-3.5,3.7-4.8c54.9-54.9,109.8-109.8,164.6-164.8c3.5-3.5,5.2-3.4,8.4,0.1
		c7.3,7.8,14.8,15.3,22.6,22.6c3.1,2.9,3.3,4.4,0.1,7.6c-57.7,57.5-115.3,115.1-173,172.7c-7.8,7.8-15.7,15.4-23.2,23.4
		c-2.8,3-4.2,3-7.2,0c-48.9-49.1-98-98.1-147-147.1c-16.6-16.6-33.2-33.3-49.9-49.7c-2.5-2.4-2.5-3.8,0-6.2
		c7.9-7.6,15.8-15.3,23.3-23.3c3.2-3.4,4.9-3.7,8.4-0.2C94.8,332.5,146.1,383.7,197.3,435C202.3,439.9,207.1,445,212.7,450.8z"/>
</g>
</svg>
