<svg viewBox="0 0 128 128" xmlns="http://www.w3.org/2000/svg">
  <path d="M100 45.5h-1.5v-1.4A36.6 36.6 0 0067.2 8v-.3H62A36.6 36.6 0 0026 36.9a22 22 0 00.7 44.1h73.1a17.7 17.7 0 000-35.5z" fill="#00AEEF"/>
  <path d="M105 45.5h-1.3v-1.4a36.6 36.6 0 00-72.4-7.3 22 22 0 00.6 44.2h73.2a17.7 17.7 0 000-35.5z" fill="#00C0F3"/>
  <path d="M90 56V46h-5.7c-.4-1.6-1-3-1.8-4.4l4-4-7-7.1-4 4c-1.5-.8-3-1.4-4.5-1.8V27H61v5.7c-1.6.4-3 1-4.4 1.8l-4-4-7.1 7 4 4c-.8 1.5-1.4 3-1.8 4.5H42v10h5.7c.4 1.6 1 3 1.8 4.4l-4 4 7 7.1 4-4c1.5.8 3 1.4 4.5 1.8V75h10v-5.7c1.6-.4 3-1 4.4-1.8l4 4 7.1-7-4-4c.8-1.5 1.4-3 1.8-4.5H90zm-24 5.7a10.7 10.7 0 110-21.4 10.7 10.7 0 010 21.4z" fill="#00AEEF"/>
  <path d="M94 66a2 2 0 01-2 2H33a2 2 0 01-2-2V54c0-1.1.9-2 2-2h59a2 2 0 012 2v12z"/>
  <path fill="none" stroke="#EC008C" stroke-miterlimit="10" stroke-width="4" d="M66 60v53"/>
  <path d="M98 66a2 2 0 01-2 2H37a2 2 0 01-2-2V54c0-1.1.9-2 2-2h59a2 2 0 012 2v12z" fill="#414042"/>
  <path d="M94 86a2 2 0 01-2 2H33a2 2 0 01-2-2V74c0-1.1.9-2 2-2h59a2 2 0 012 2v12z"/>
  <path d="M98 86a2 2 0 01-2 2H37a2 2 0 01-2-2V74c0-1.1.9-2 2-2h59a2 2 0 012 2v12z" fill="#414042"/>
  <path d="M94 106a2 2 0 01-2 2H33a2 2 0 01-2-2V94c0-1.1.9-2 2-2h59a2 2 0 012 2v12z"/>
  <path d="M98 106a2 2 0 01-2 2H37a2 2 0 01-2-2V94c0-1.1.9-2 2-2h59a2 2 0 012 2v12z" fill="#414042"/>
  <path fill="none" stroke="#EC008C" stroke-linecap="square" stroke-miterlimit="10" stroke-width="4" d="M71 118h25M35 118h27"/>
  <circle cx="66.3" cy="117.1" fill="none" r="4.2" stroke="#EC008C" stroke-miterlimit="10" stroke-width="4"/>
  <circle cx="43.3" cy="59.5" fill="#FFF200" r="2.2"/>
  <circle cx="51.1" cy="59.5" fill="#EC008C" r="2.2"/>
  <circle cx="58.9" cy="59.5" fill="#E6E7E8" r="2.2"/>
  <circle cx="43.3" cy="79.7" fill="#EC008C" r="2.2"/>
  <circle cx="51.1" cy="79.7" fill="#00C0F3" r="2.2"/>
  <circle cx="58.9" cy="79.7" fill="#E6E7E8" r="2.2"/>
  <circle cx="43.3" cy="99.8" fill="#00AEEF" r="2.2"/>
  <circle cx="51.1" cy="99.8" fill="#EC008C" r="2.2"/>
  <circle cx="58.9" cy="99.8" fill="#E6E7E8" r="2.2"/>
  <path fill="#D1D3D4" d="M76 58h14v4H76zM76 78h14v4H76zM76 98h14v4H76z"/>
</svg>
